<svg height="20" viewBox="0 0 144 144" xmlns="http://www.w3.org/2000/svg"><path d="m556.71 169.71h-21.35v-33.42c0-8-.14-18.23-11.1-18.23s-12.81 8.69-12.81 17.65v34h-21.35v-68.71h20.49v9.39h.29c2.85-5.41 9.81-11.1 20.2-11.1 21.63 0 25.63 14.23 25.63 32.73v37.7zm-90.71-78.12a12.38 12.38 0 1 1 12.41-12.39 12.39 12.39 0 0 1 -12.41 12.39zm10.68 78.12h-21.33v-68.71h21.36v68.72zm90.66-122.71h-122.71a10.51 10.51 0 0 0 -10.63 10.38v123.23a10.52 10.52 0 0 0 10.63 10.39h122.71a10.54 10.54 0 0 0 10.66-10.39v-123.23a10.53 10.53 0 0 0 -10.66-10.38z" fill="#fff" transform="translate(-434 -47)"/></svg>